# xmcd
#
# Track frame offsets: 
#        150
#        10043
#        20141
#        30280
#        39629
#        49129
#        59940
#        69921
#        81247
#        91076
#        101855
#        112720
#        124569
#        133826
#        143787
#        155280
#        165646
#        176762
#
# Disc length: 2491 seconds
#
# Revision: 1
# Processed by: cddbd v1.5.2PL0 Copyright (c) Steve Scherf et al.
# Submitted via: ExactAudioCopy v1.3
#
DISCID=eb09b912
DTITLE=Lester Flatt and Earl Scruggs - Flatt on Victor Plus More_CD1
DYEAR=1999
DGENRE=Bluegrass
TTITLE0=I've Heard the Wind Blow Before
TTITLE1=Passing Through
TTITLE2=I'll Never Understand
TTITLE3=Man of Constant Sorrow
TTITLE4=Take Me Home to Mama
TTITLE5=Before You Die
TTITLE6=Shut Your Face, I'm Talking to Your Head
TTITLE7=Walk Slow
TTITLE8=I'll Figure My Loss
TTITLE9=Don't Get Above Your Raisin'
TTITLE10=I Think of You
TTITLE11=Girl from the North Country
TTITLE12=I Want to Come Home to You
TTITLE13=Walk Right In
TTITLE14=Cotton Fields
TTITLE15=Foggy Mountain Breakdown
TTITLE16=Sing a Little Baby to Sleep
TTITLE17=Rainy Day Women #12 and 35
EXTD=
EXTT0=
EXTT1=
EXTT2=
EXTT3=
EXTT4=
EXTT5=
EXTT6=
EXTT7=
EXTT8=
EXTT9=
EXTT10=
EXTT11=
EXTT12=
EXTT13=
EXTT14=
EXTT15=
EXTT16=
EXTT17=
PLAYORDER=
